<svg xmlns="http://www.w3.org/2000/svg" viewBox="0 0 100 100">
  <defs>
    <linearGradient id="grad" x1="0%" y1="0%" x2="100%" y2="100%">
      <stop offset="0%" style="stop-color:#6366f1;stop-opacity:1" />
      <stop offset="100%" style="stop-color:#8b5cf6;stop-opacity:1" />
    </linearGradient>
  </defs>
  
  <!-- Background circle -->
  <circle cx="50" cy="50" r="48" fill="url(#grad)"/>
  
  <!-- Chat bubble 1 (left) -->
  <path d="M 25 35 L 45 35 L 45 50 L 30 50 L 25 55 Z" fill="white" opacity="0.9"/>
  
  <!-- Chat bubble 2 (right) -->
  <path d="M 55 45 L 75 45 L 75 60 L 70 60 L 75 65 L 75 60 L 60 60 L 55 60 Z" fill="white" opacity="0.9"/>
  
  <!-- Translation arrows -->
  <path d="M 35 40 L 38 37 L 38 39 L 42 39 L 42 41 L 38 41 L 38 43 Z" fill="#6366f1"/>
  <path d="M 65 52 L 62 49 L 62 51 L 58 51 L 58 53 L 62 53 L 62 55 Z" fill="#6366f1"/>
</svg>

